<svg width="133" height="133" viewBox="0 0 133 133" fill="none" xmlns="http://www.w3.org/2000/svg">
<path d="M131.644 66.0433C131.644 101.887 102.433 130.955 66.3878 130.955C30.3423 130.955 1.13161 101.887 1.13161 66.0433C1.13161 30.1991 30.3423 1.13161 66.3878 1.13161C102.433 1.13161 131.644 30.1991 131.644 66.0433Z" stroke="#574B40" stroke-width="2.26322"/>
<path d="M119.992 65.9358C119.992 94.9837 96.0253 118.565 66.4195 118.565C36.8136 118.565 12.847 94.9837 12.847 65.9358C12.847 36.8879 36.8136 13.3065 66.4195 13.3065C96.0253 13.3065 119.992 36.8879 119.992 65.9358Z" stroke="#574B40" stroke-width="2.26322"/>
<path d="M65.2393 14.2424C27.7932 58.0842 27.5055 79.774 64.7445 117.615" stroke="#574B40" stroke-width="2.26322" stroke-linecap="round"/>
<path d="M34.9168 24.2349L34.9168 107.277" stroke="#574B40" stroke-width="2.26322" stroke-linecap="round"/>
<path d="M95.072 21.0736C47.5114 51.0939 45.7846 79.2087 95.0721 110.786" stroke="#574B40" stroke-width="2.26322"/>
</svg>
